[Header]
FileType HTR
DataType HTRS
FileVersion 1
NumSegments 48
NumFrames 3
DataFrameRate 30
EulerRotationOrder ZYX
CalibrationUnits mm
RotationUnits Degrees
GlobalAxisofGravity Y
BoneLengthAxis Y
ScaleFactor 1.0
[SegmentNames&Hierarchy]
Wolf	GLOBAL
Becken	Wolf
Bauch	Becken
Bauch_001	Bauch
Brust	Bauch_001
Hals	Brust
Kopf_002	Hals
Kopf	Kopf_002
Unterkiefer	Kopf
Hals_fett	Unterkiefer
Maulunten	Unterkiefer
Mauloben	Kopf
MundW_L	Kopf
MundW_R	Kopf
Augen_con	Kopf
IK_Aug_R	Augen_con
IK_Aug_L	Augen_con
Aug_R	Kopf
aug_L	Kopf
Ohr_L	Kopf
Ohr_R	Kopf
Braun_O_L	Kopf
Braun_O_R	Kopf
aug_lied_O_L	Kopf
aug_lied_O_R	Kopf
aug_lied_U_L	Kopf
aug_lied_U_R	Kopf
Bauch_003	Brust
Schalterplatte_L	Bauch_003
Oberarm_L	Schalterplatte_L
Unterarm_L	Oberarm_L
Vorderpfote_L	Unterarm_L
Schalterplatte_R	Bauch_003
Oberarm_R	Schalterplatte_R
Unterarm_R	Oberarm_R
Vorderpfote_R	Unterarm_R
Schwanz	Becken
Schwanz_001	Schwanz
Schwanz_002	Schwanz_001
Schwanz_003	Schwanz_002
Oberschenkel_L	Becken
Unterschenkel_L	Oberschenkel_L
Pfote1_L	Unterschenkel_L
Pfote2_L	Pfote1_L
Oberschenkel_R	Becken
Unterschenkel_R	Oberschenkel_R
Pfote1_R	Unterschenkel_R
Pfote2_R	Pfote1_R
[BasePosition]
Wolf	0	0	0	0	0	0	1
Becken	0	0	0	0	0	0	1
Bauch	0	0	0	0	0	0	1
Bauch_001	0	0	0	0	0	0	1
Brust	0	0	0	0	0	0	1
Hals	0	0	0	0	0	0	1
Kopf_002	0	0	0	0	0	0	1
Kopf	0	0	0	0	0	0	1
Unterkiefer	0	0	0	0	0	0	1
Hals_fett	0	0	0	0	0	0	1
Maulunten	0	0	0	0	0	0	1
Mauloben	0	0	0	0	0	0	1
MundW_L	0	0	0	0	0	0	1
MundW_R	0	0	0	0	0	0	1
Augen_con	0	0	0	0	0	0	1
IK_Aug_R	0	0	0	0	0	0	1
IK_Aug_L	0	0	0	0	0	0	1
Aug_R	0	0	0	0	0	0	1
aug_L	0	0	0	0	0	0	1
Ohr_L	0	0	0	0	0	0	1
Ohr_R	0	0	0	0	0	0	1
Braun_O_L	0	0	0	0	0	0	1
Braun_O_R	0	0	0	0	0	0	1
aug_lied_O_L	0	0	0	0	0	0	1
aug_lied_O_R	0	0	0	0	0	0	1
aug_lied_U_L	0	0	0	0	0	0	1
aug_lied_U_R	0	0	0	0	0	0	1
Bauch_003	0	0	0	0	0	0	1
Schalterplatte_L	0	0	0	0	0	0	1
Oberarm_L	0	0	0	0	0	0	1
Unterarm_L	0	0	0	0	0	0	1
Vorderpfote_L	0	0	0	0	0	0	1
Schalterplatte_R	0	0	0	0	0	0	1
Oberarm_R	0	0	0	0	0	0	1
Unterarm_R	0	0	0	0	0	0	1
Vorderpfote_R	0	0	0	0	0	0	1
Schwanz	0	0	0	0	0	0	1
Schwanz_001	0	0	0	0	0	0	1
Schwanz_002	0	0	0	0	0	0	1
Schwanz_003	0	0	0	0	0	0	1
Oberschenkel_L	0	0	0	0	0	0	1
Unterschenkel_L	0	0	0	0	0	0	1
Pfote1_L	0	0	0	0	0	0	1
Pfote2_L	0	0	0	0	0	0	1
Oberschenkel_R	0	0	0	0	0	0	1
Unterschenkel_R	0	0	0	0	0	0	1
Pfote1_R	0	0	0	0	0	0	1
Pfote2_R	0	0	0	0	0	0	1
[Wolf]
16	0	0	0	-90	-0	0	1.0
17	0	0	0	-90	-0	0	1.0
18	0	0	0	-90	-0	0	1.0
[Becken]
16	0	0.5621799231	0.5327301025	0.6440702677	169.3786774	90.23157501	1.0
17	0	0.5621799231	0.5220261216	0.8823857307	169.379837	90.31725311	1.0
18	0	0.5621799231	0.5088441372	1.104326725	169.3812561	90.39703369	1.0
[Bauch]
16	0.9404072165	7.335228958e-08	-0.3559131622	-9.70548399e-07	12.60522652	-8.885302805e-08	1.0
17	0.9404072165	7.335228958e-08	-0.3559131622	-9.70548399e-07	12.60522652	-8.885302805e-08	1.0
18	0.9404072165	7.335228958e-08	-0.3559131622	-9.70548399e-07	12.60522652	-8.885302805e-08	1.0
[Bauch_001]
16	1.081897616	8.323696221e-08	1.180524034e-08	-2.503413032e-09	2.360082865	-2.670307531e-08	1.0
17	1.081897616	8.323696221e-08	1.180524034e-08	-2.503413032e-09	2.360082865	-2.670307531e-08	1.0
18	1.081897616	8.323696221e-08	1.180524034e-08	-2.503413032e-09	2.360082865	-2.670307531e-08	1.0
[Brust]
16	1.069831252	8.440110832e-08	3.139576066e-08	5.110827715e-06	15.3184185	-3.549572648e-05	1.0
17	1.069831252	8.440110832e-08	3.139576066e-08	5.110827715e-06	14.88452244	-3.549572648e-05	1.0
18	1.069831252	8.440110832e-08	3.139576066e-08	5.110827715e-06	14.35035896	-3.549572648e-05	1.0
[Hals]
16	1.258022308	9.662471712e-08	0.6079561114	-4.810633527e-06	46.87745667	-2.341890877e-06	1.0
17	1.258022308	9.662471712e-08	0.6079561114	-4.810633527e-06	46.87745667	-2.341890877e-06	1.0
18	1.258022308	9.662471712e-08	0.6079561114	-4.810633527e-06	46.87745667	-2.341890877e-06	1.0
[Kopf_002]
16	1.752595186	3.012712114e-05	0.265181601	0.006653386634	-165.1497192	0.002557684667	1.0
17	1.752595186	3.012712114e-05	0.265181601	0.006653386634	-165.1497192	0.002557684667	1.0
18	1.752595186	3.012712114e-05	0.265181601	0.006653386634	-165.1497192	0.002557684667	1.0
[Kopf]
16	1.015782118	6.868503988e-08	-5.515175872e-08	0.05861831084	114.1160889	-0.03494329378	1.0
17	1.015782118	6.868503988e-08	-5.515175872e-08	0.05986097082	114.9836578	-0.03381378576	1.0
18	1.015782118	6.868503988e-08	-5.515175872e-08	0.06126160547	116.0520706	-0.03256389871	1.0
[Unterkiefer]
16	0.6370447874	0.004552732222	0.4060618579	5.412721634	-68.3888092	-3.093543291	1.0
17	0.6370447874	0.004552732222	0.4060618579	5.412721634	-68.3888092	-3.093543291	1.0
18	0.6370447874	0.004552732222	0.4060618579	5.412721634	-68.3888092	-3.093543291	1.0
[Hals_fett]
16	0.2998305857	0.007747137919	0.1206372604	-5.071650982	-59.35961151	5.585564613	1.0
17	0.2998305857	0.007747137919	0.1206372604	-5.071650982	-59.35961151	5.585564613	1.0
18	0.2998305857	0.007747137919	0.1206372604	-5.071650982	-59.35961151	5.585564613	1.0
[Maulunten]
16	0.0831861794	-0.007747565862	-0.1206544712	-3.322209358	38.97271347	-0.8718761206	1.0
17	0.0831861794	-0.007747565862	-0.1206544712	-3.322209358	38.97271347	-0.8718761206	1.0
18	0.0831861794	-0.007747565862	-0.1206544712	-3.322209358	38.97271347	-0.8718761206	1.0
[Mauloben]
16	0.9101490974	0.0004056713078	0.4003697634	-0.1032672822	-28.7776947	0.03543138877	1.0
17	0.9101490974	0.0004056713078	0.4003697634	-0.1032672822	-28.7776947	0.03543138877	1.0
18	0.9101490974	0.0004056713078	0.4003697634	-0.1032672822	-28.7776947	0.03543138877	1.0
[MundW_L]
16	0.673060894	-0.3618555963	0.3751283586	-179.8370972	-17.94885063	24.713974	1.0
17	0.673060894	-0.3618555963	0.3751283586	-179.8370972	-17.94885063	24.713974	1.0
18	0.673060894	-0.3618555963	0.3751283586	-179.8370972	-17.94885063	24.713974	1.0
[MundW_R]
16	0.6732419133	0.3627035022	0.3739836514	179.665329	-18.02427101	-24.69083595	1.0
17	0.6732419133	0.3627035022	0.3739836514	179.665329	-18.02427101	-24.69083595	1.0
18	0.6732419133	0.3627035022	0.3739836514	179.665329	-18.02427101	-24.69083595	1.0
[Augen_con]
16	1.807373166	-0.0001604110003	0.183581531	0.0982221961	157.1545258	0.02385941334	1.0
17	1.807373166	-0.0001604110003	0.183581531	0.0982221961	157.1545258	0.02385941334	1.0
18	1.807373166	-0.0001604110003	0.183581531	0.0982221961	157.1545258	0.02385941334	1.0
[IK_Aug_R]
16	0.3461295962	0.2943200469	-1.071020961e-07	-0.4194760025	-4.963055134	165.6946411	1.0
17	0.3461295962	0.2943200469	-1.071020961e-07	-0.4194760025	-4.963055134	165.6946411	1.0
18	0.3461295962	0.2943200469	-1.071020961e-07	-0.4194760025	-4.963055134	165.6946411	1.0
[IK_Aug_L]
16	0.3461301029	-0.2943200171	-1.967418939e-07	0.4194771945	-4.963055134	-165.6946411	1.0
17	0.3461301029	-0.2943200171	-1.967418939e-07	0.4194771945	-4.963055134	-165.6946411	1.0
18	0.3461301029	-0.2943200171	-1.967418939e-07	0.4194771945	-4.963055134	-165.6946411	1.0
[Aug_R]
16	1.035154939	0.2207805216	-0.09605780989	176.004776	-17.29167175	12.85548782	1.0
17	1.035154939	0.2207805216	-0.09605780989	176.004776	-17.29167175	12.85548782	1.0
18	1.035154939	0.2207805216	-0.09605780989	176.004776	-17.29167175	12.85548782	1.0
[aug_L]
16	1.03504467	-0.2215988934	-0.09535907209	-176.1891022	-17.33180046	-12.83102131	1.0
17	1.03504467	-0.2215988934	-0.09535907209	-176.1891022	-17.33180046	-12.83102131	1.0
18	1.03504467	-0.2215988934	-0.09535907209	-176.1891022	-17.33180046	-12.83102131	1.0
[Ohr_L]
16	0.6407766938	-0.3659991026	-0.6893324852	-24.34923935	53.07765961	-15.02013397	1.0
17	0.6407766938	-0.3659991026	-0.6893324852	-24.34923935	53.07765961	-15.02013397	1.0
18	0.6407766938	-0.3659991026	-0.6893324852	-24.34923935	53.07765961	-15.02013397	1.0
[Ohr_R]
16	0.640958488	0.36349985	-0.690484941	24.05785561	53.12415695	14.75856686	1.0
17	0.640958488	0.36349985	-0.690484941	24.05785561	53.12415695	14.75856686	1.0
18	0.640958488	0.36349985	-0.690484941	24.05785561	53.12415695	14.75856686	1.0
[Braun_O_L]
16	0.9801894426	-0.3706049323	-0.3292509615	-143.317215	-34.69636154	52.39493942	1.0
17	0.9801894426	-0.3706049323	-0.3292509615	-143.317215	-34.69636154	52.39493942	1.0
18	0.9801894426	-0.3706049323	-0.3292509615	-143.317215	-34.69636154	52.39493942	1.0
[Braun_O_R]
16	0.9803640842	0.3690741956	-0.3304226995	143.1826782	-34.83971405	-52.34676361	1.0
17	0.9803640842	0.3690741956	-0.3304226995	143.1826782	-34.83971405	-52.34676361	1.0
18	0.9803640842	0.3690741956	-0.3304226995	143.1826782	-34.83971405	-52.34676361	1.0
[aug_lied_O_L]
16	1.038882375	-0.3271433413	-0.1608109176	-175.8613434	-20.15596771	60.31667709	1.0
17	1.038882375	-0.3271433413	-0.1608109176	-175.8613434	-20.15596771	60.31667709	1.0
18	1.038882375	-0.3271433413	-0.1608109176	-175.8613434	-20.15596771	60.31667709	1.0
[aug_lied_O_R]
16	1.039044976	0.326115787	-0.1618431658	175.7657928	-20.31324005	-60.31218338	1.0
17	1.039044976	0.326115787	-0.1618431658	175.7657928	-20.31324005	-60.31218338	1.0
18	1.039044976	0.326115787	-0.1618431658	175.7657928	-20.31324005	-60.31218338	1.0
[aug_lied_U_L]
16	1.02191329	-0.3312865198	-0.1338392347	-159.8099365	-28.7482872	60.17462158	1.0
17	1.02191329	-0.3312865198	-0.1338392347	-159.8099365	-28.7482872	60.17462158	1.0
18	1.02191329	-0.3312865198	-0.1338392347	-159.8099365	-28.7482872	60.17462158	1.0
[aug_lied_U_R]
16	1.022078872	0.3303525448	-0.1348842829	159.7071381	-28.90532303	-60.15359116	1.0
17	1.022078872	0.3303525448	-0.1348842829	159.7071381	-28.90532303	-60.15359116	1.0
18	1.022078872	0.3303525448	-0.1348842829	159.7071381	-28.90532303	-60.15359116	1.0
[Bauch_003]
16	1.276869178	9.429641068e-08	-0.6079563498	-3.842957085e-06	-137.6799469	1.008550771e-05	1.0
17	1.276869178	9.429641068e-08	-0.6079563498	-3.842957085e-06	-137.6799469	1.008550771e-05	1.0
18	1.276869178	9.429641068e-08	-0.6079563498	-3.842957085e-06	-137.6799469	1.008550771e-05	1.0
[Schalterplatte_L]
16	0.9077025652	-0.3851399422	0.03195466846	0.8903100491	67.4184494	-25.70605659	1.0
17	0.9271125793	-0.3878759742	0.05047591031	1.141608596	67.40538788	-25.35210228	1.0
18	0.9518694878	-0.3906119466	0.07107292116	1.192312598	67.5337677	-25.20920944	1.0
[Oberarm_L]
16	1.418636799	1.443549991e-07	9.778887033e-08	-50.53179169	-57.76995087	59.77449036	1.0
17	1.418636799	1.443549991e-07	9.778887033e-08	-51.90179062	-58.53730011	61.60754776	1.0
18	1.418636799	1.443549991e-07	9.778887033e-08	-53.48473358	-59.34342575	63.69726181	1.0
[Unterarm_L]
16	2.028227329	8.847563748e-08	-3.725290298e-07	0.9109784961	39.41824722	0.8501622677	1.0
17	2.028227329	8.847563748e-08	-3.725290298e-07	1.167129755	40.13404465	1.147241116	1.0
18	2.028227329	8.847563748e-08	-3.725290298e-07	1.462490439	41.05255127	1.485774994	1.0
[Vorderpfote_L]
16	1.705947638	1.746229827e-07	-5.704351125e-08	-4.7135849	80.99119568	-3.730895996	1.0
17	1.705947638	1.746229827e-07	-5.704351125e-08	-4.631464958	81.6864624	-3.649618864	1.0
18	1.705947638	1.746229827e-07	-5.704351125e-08	-4.552588463	82.51618958	-3.572208166	1.0
[Schalterplatte_R]
16	0.9071987867	0.3821840882	-0.02714522555	96.7898407	78.95076752	129.1828308	1.0
17	0.9165476561	0.3822256625	-0.04023293033	98.90249634	78.72647858	131.0418701	1.0
18	0.9274076223	0.3822672665	-0.05332063138	100.9525986	78.48957062	132.8483276	1.0
[Oberarm_R]
16	1.418636322	-1.210719205e-07	-7.450580597e-08	97.91113281	-60.0846405	-115.9798737	1.0
17	1.418636322	-1.210719205e-07	-7.450580597e-08	92.54749298	-60.85849762	-109.4474792	1.0
18	1.418636322	-1.210719205e-07	-7.450580597e-08	86.987854	-61.34848785	-102.737793	1.0
[Unterarm_R]
16	2.028231859	1.676380634e-07	-3.608874977e-07	-5.182472229	66.35325623	-5.424323082	1.0
17	2.028231859	1.676380634e-07	-3.608874977e-07	-4.264857292	66.62358856	-4.209201336	1.0
18	2.028231859	1.676380634e-07	-3.608874977e-07	-3.357624054	66.49488068	-3.06142211	1.0
[Vorderpfote_R]
16	1.705937624	7.799826562e-08	1.461012289e-07	-7.834162235	-15.18837357	7.915262699	1.0
17	1.705937624	7.799826562e-08	1.461012289e-07	-7.562996864	-15.00477982	8.256385803	1.0
18	1.705937624	7.799826562e-08	1.461012289e-07	-7.259641171	-14.85812283	8.436861038	1.0
[Schwanz]
16	-0.09526663274	-1.382431947e-08	0.06363326311	-2.220226997e-05	-120.1826019	2.181978562e-05	1.0
17	-0.1026309952	-1.382431947e-08	0.06696674228	-2.220226997e-05	-119.3542175	2.181978562e-05	1.0
18	-0.1121753156	-1.382431947e-08	0.07211710513	-2.220226997e-05	-118.3340912	2.181978562e-05	1.0
[Schwanz_001]
16	0.9104328156	6.868503988e-08	7.788912626e-08	-2.408194405e-06	16.21725082	-5.75290926e-07	1.0
17	0.9104328156	6.868503988e-08	7.788912626e-08	-2.408194405e-06	15.08826733	-5.75290926e-07	1.0
18	0.9104328156	6.868503988e-08	7.788912626e-08	-2.408194405e-06	13.69748592	-5.75290926e-07	1.0
[Schwanz_002]
16	0.7855660319	5.704351125e-08	-1.185253495e-07	8.174235973e-07	-3.130073309	-1.362372615e-07	1.0
17	0.7855660319	5.704351125e-08	-1.185253495e-07	8.174235973e-07	-3.946955919	-1.362372615e-07	1.0
18	0.7855660319	5.704351125e-08	-1.185253495e-07	8.174235973e-07	-4.952903748	-1.362372615e-07	1.0
[Schwanz_003]
16	0.8350355029	6.286426668e-08	-2.072192729e-07	-2.187832479e-06	-4.872846603	1.867661581e-07	1.0
17	0.8350355029	6.286426668e-08	-2.072192729e-07	-2.187832479e-06	-4.440600395	1.867661581e-07	1.0
18	0.8350355029	6.286426668e-08	-2.072192729e-07	-2.187832479e-06	-3.908465862	1.867661581e-07	1.0
[Oberschenkel_L]
16	0.6867172718	-0.5836999416	-0.09911739826	-167.4039307	-129.5815735	173.3782806	1.0
17	0.6726697087	-0.5836999416	-0.0800165236	-167.5960083	-130.7409058	173.6301117	1.0
18	0.6554101706	-0.5836999416	-0.05636359006	-167.7001801	-131.3898315	173.767868	1.0
[Unterschenkel_L]
16	1.686439037	6.984918599e-08	-6.053597446e-08	-52.04688263	-71.60006714	62.32714462	1.0
17	1.686439037	6.984918599e-08	-6.053597446e-08	-47.64060211	-70.16012573	58.08679581	1.0
18	1.686439037	6.984918599e-08	-6.053597446e-08	-42.35144806	-68.04177856	52.86046982	1.0
[Pfote1_L]
16	1.190900326	6.519258022e-08	1.396983862e-07	2.012585163	36.67289734	-6.353038311	1.0
17	1.190900326	6.519258022e-08	1.396983862e-07	1.984514475	37.10876083	-6.399740696	1.0
18	1.190900326	6.519258022e-08	1.396983862e-07	1.962430596	37.44639206	-6.436218262	1.0
[Pfote2_L]
16	0.9876257777	7.450580597e-08	-5.587935092e-08	-60.75122833	83.99308777	-67.44877625	1.0
17	0.9876257777	7.450580597e-08	-5.587935092e-08	-51.13665009	83.45411682	-57.89936447	1.0
18	0.9876257777	7.450580597e-08	-5.587935092e-08	-41.64544678	82.7516861	-48.43900299	1.0
[Oberschenkel_R]
16	0.5141010284	0.5837000012	0.1208601445	-30.05522346	-77.96932983	25.43335152	1.0
17	0.5025439858	0.5837000012	0.1232067347	-33.38991547	-79.23409271	28.83287621	1.0
18	0.4909868836	0.5837000012	0.1255533248	-37.50989151	-80.43435669	33.0165062	1.0
[Unterschenkel_R]
16	1.68644917	1.164153218e-07	2.793967901e-08	11.95336437	-35.96197891	-19.15455818	1.0
17	1.68644917	1.164153218e-07	2.793967901e-08	12.17053795	-37.33178329	-19.03089905	1.0
18	1.68644917	1.164153218e-07	2.793967901e-08	12.41166115	-38.78778076	-18.98839569	1.0
[Pfote1_R]
16	1.190900087	1.856824383e-07	4.190951941e-08	-2.183298826	32.39843369	6.058353901	1.0
17	1.190900087	1.856824383e-07	4.190951941e-08	-2.161061049	31.85505676	6.100254059	1.0
18	1.190900087	1.856824383e-07	4.190951941e-08	-2.124750614	30.92963028	6.170327187	1.0
[Pfote2_R]
16	0.9876258373	6.984919754e-09	6.635672634e-08	128.934494	87.85970306	134.0366364	1.0
17	0.9876258373	6.984919754e-09	6.635672634e-08	113.360321	88.05395508	118.2533112	1.0
18	0.9876258373	6.984919754e-09	6.635672634e-08	82.89447021	87.96347809	87.57778168	1.0
[EndOfFile]
